<?xml version="1.0" encoding="UTF-8"?>
<svg width="600" height="200" xmlns="http://www.w3.org/2000/svg">
  <!-- Cruz/símbolo de mais azul -->
  <path d="M175,80 C175,80 175,80 175,80 C205,80 230,105 230,135 C230,165 205,190 175,190 C145,190 120,165 120,135 L120,80 Z" fill="#0077FF"/>
  <path d="M175,190 C175,190 175,190 175,190 C145,190 120,165 120,135 C120,105 145,80 175,80 C205,80 230,105 230,135 L230,190 Z" fill="#0077FF"/>
  
  <!-- Círculo cinza sobreposto -->
  <circle cx="175" cy="135" r="25" fill="#AAAAAA" opacity="0.8"/>
  
  <!-- Texto "EQUIDADE+" -->
  <text x="270" y="145" font-family="Arial, sans-serif" font-weight="bold" font-size="60" fill="#1A2B40">EQUIDADE+</text>
</svg>